HIERARCHY
ROOT Hips
{
	OFFSET 0.000000 0.000000 0.000000 
	CHANNELS 6 Xposition Yposition Zposition Zrotation Yrotation Xrotation
	JOINT LeftUpLeg
	{
		OFFSET 1.363060 -1.794630 0.839290 
		CHANNELS 3 Zrotation Yrotation Xrotation
		JOINT LeftLeg
		{
			OFFSET 2.448110 -6.726130 0.000000 
			CHANNELS 3 Zrotation Yrotation Xrotation
			JOINT LeftFoot
			{
				OFFSET 2.562200 -7.039590 0.000000 
				CHANNELS 3 Zrotation Yrotation Xrotation
				JOINT LeftToeBase
				{
					OFFSET 0.157640 -0.433110 2.322550 
					CHANNELS 3 Zrotation Yrotation Xrotation
					End Site
					{
						OFFSET 0.000000 0.000000 0.000000 
					}
				}
			}
		}
	}
	JOINT RightUpLeg
	{
		OFFSET -1.305520 -1.794630 0.839290 
		CHANNELS 3 Zrotation Yrotation Xrotation
		JOINT RightLeg
		{
			OFFSET -2.542530 -6.985550 0.000000 
			CHANNELS 3 Zrotation Yrotation Xrotation
			JOINT RightFoot
			{
				OFFSET -2.568260 -7.056230 0.000000 
				CHANNELS 3 Zrotation Yrotation Xrotation
				JOINT RightToeBase
				{
					OFFSET -0.164730 -0.452590 2.363150 
					CHANNELS 3 Zrotation Yrotation Xrotation
					End Site
					{
						OFFSET 0.000000 0.000000 0.000000 
					}
				}
			}
		}
	}
	JOINT Spine
	{
		OFFSET 0.028270 2.035590 -0.193380 
		CHANNELS 3 Zrotation Yrotation Xrotation
		JOINT Spine1
		{
			OFFSET 0.056720 2.048850 -0.042750 
			CHANNELS 3 Zrotation Yrotation Xrotation
			JOINT Neck1
			{
				OFFSET -0.054170 1.746240 0.172020 
				CHANNELS 3 Zrotation Yrotation Xrotation
				JOINT Head
				{
					OFFSET 0.104070 1.761360 -0.123970 
					CHANNELS 3 Zrotation Yrotation Xrotation
					End Site
					{
						OFFSET 0.000000 0.000000 0.000000 
					}
				}
			}
			JOINT LeftArm
			{
				OFFSET 3.362410 1.200890 -0.311210 
				CHANNELS 3 Zrotation Yrotation Xrotation
				JOINT LeftForeArm
				{
					OFFSET 4.983000 -0.000000 -0.000000 
					CHANNELS 3 Zrotation Yrotation Xrotation
					JOINT LeftHand
					{
						OFFSET 3.483560 -0.000000 -0.000000 
						CHANNELS 3 Zrotation Yrotation Xrotation
						JOINT LeftHandIndex1
						{
							OFFSET 0.715260 -0.000000 -0.000000 
							CHANNELS 3 Zrotation Yrotation Xrotation
							End Site
							{
								OFFSET 0.000000 0.000000 0.000000 
							}
						}
					}
				}
			}
			JOINT RightArm
			{
				OFFSET -3.136600 1.374050 -0.404650 
				CHANNELS 3 Zrotation Yrotation Xrotation
				JOINT RightForeArm
				{
					OFFSET -5.241900 -0.000000 -0.000000 
					CHANNELS 3 Zrotation Yrotation Xrotation
					JOINT RightHand
					{
						OFFSET -3.444170 -0.000000 -0.000000 
						CHANNELS 3 Zrotation Yrotation Xrotation
						JOINT RightHandIndex1
						{
							OFFSET -0.622530 -0.000000 -0.000000 
							CHANNELS 3 Zrotation Yrotation Xrotation
							End Site
							{
								OFFSET 0.000000 0.000000 0.000000 
							}
						}
					}
				}
			}
		}
	}
}
MOTION
Frames: 17
Frame Time: 0.041667
10.056433 18.130965 9.935063 58.479338 -83.701343 -50.524518 -15.807257 -6.489957 -6.748779 0.423842 2.971119 10.739486 0.323474 -3.444526 -6.425844 0.542300 4.718000 13.106000 12.083172 0.177504 3.511009 -0.584407 0.832165 0.350823 1.157872 -8.290658 -3.574107 -0.165700 2.622400 -7.229100 -19.746411 6.524868 2.907767 -3.856859 3.163241 1.087497 27.693858 -19.138692 27.819871 7.542500 -6.964000 12.305600 -101.875684 26.074400 4.588450 31.368785 -36.487015 -11.273101 1.561141 -0.401617 -58.776330 -7.125000 0.000000 0.000000 94.716493 -7.053867 14.426273 -17.528950 21.904726 -3.840563 0.064592 -0.815852 24.150769 7.125000 0.000000 0.000000 
10.053838 18.123662 9.932948 55.337688 -83.746052 -47.367758 -15.499656 -6.890891 -6.395499 0.342207 2.703027 9.939976 0.243288 -2.524589 -6.188516 0.256500 3.258700 9.000000 12.592049 0.287745 2.735339 -0.634914 0.330034 1.816539 1.113935 -8.113376 -4.397090 -0.182500 2.751900 -7.588700 -19.594837 6.404376 3.043523 -3.880056 3.097660 1.244771 27.942541 -19.163368 27.602932 7.636500 -6.982400 12.264800 -102.085532 26.432585 4.688680 31.796720 -36.873068 -11.588614 1.565772 -0.350204 -59.029490 -7.125000 0.000000 0.000000 94.796803 -7.003779 14.358979 -17.556159 21.936015 -3.851755 0.073175 -0.823843 23.963012 7.125000 0.000000 0.000000 
10.051147 18.106653 9.935351 58.395769 -83.965763 -50.446401 -15.586252 -6.809329 -6.610883 0.341124 2.742934 10.067566 0.182785 -1.714757 -6.227667 0.014000 0.762700 2.096200 12.326469 0.327767 3.562945 -0.587612 0.839994 0.358994 1.164498 -8.320851 -3.668241 -0.178500 2.721600 -7.504600 -19.529502 6.577556 3.112302 -3.820624 3.183938 1.330558 28.001076 -19.035698 27.286777 7.660800 -6.951000 12.107700 -102.240754 26.744681 4.652168 31.935764 -36.994181 -11.716225 1.564864 -0.250708 -58.007352 -7.125000 0.000000 0.000000 94.743795 -7.010385 13.894882 -17.563831 21.956993 -3.856560 0.043619 -0.848714 24.649547 7.125000 0.000000 0.000000 
10.042210 18.126833 9.939387 64.155585 -84.003113 -56.266609 -15.854207 -6.437157 -6.186269 0.363101 2.752659 10.077044 0.278817 -2.899695 -6.321346 0.482900 4.456000 12.363400 11.948519 0.792347 3.721694 -0.589002 0.824978 0.356126 1.154628 -8.291158 -3.705131 -0.156400 2.548300 -7.023600 -19.545101 6.799427 3.171604 -3.674210 3.294786 1.316092 28.032317 -18.990358 26.989732 7.682800 -6.970600 11.973100 -102.465674 27.173654 4.799248 32.254823 -37.300611 -11.961549 1.540109 -0.300611 -57.407784 -7.125000 0.000000 0.000000 94.515396 -7.129797 14.039416 -17.612601 22.036361 -3.879426 0.049598 -0.847450 24.795401 7.125000 0.000000 0.000000 
10.045189 18.130773 9.939867 65.610867 -83.911825 -57.818502 -15.970035 -6.570681 -5.998741 0.383011 2.813999 10.251109 0.314164 -3.253997 -6.491502 0.877400 5.971700 16.702300 11.741297 0.850437 3.815464 -0.587788 0.819312 0.351847 1.145485 -8.241058 -3.672820 -0.145600 2.458800 -6.775500 -19.567635 6.856898 3.260232 -3.628094 3.319813 1.251460 28.121687 -19.141180 26.910537 7.712100 -7.053700 11.989600 -102.570441 27.663634 5.257217 32.765063 -37.752519 -12.349904 1.525831 -0.269844 -57.449857 -7.125000 0.000000 0.000000 94.377432 -7.171752 14.269675 -17.635914 22.076459 -3.888917 0.066247 -0.824639 24.470745 7.125000 0.000000 0.000000 
10.046439 18.131830 9.940156 62.961259 -83.990943 -55.153280 -15.662871 -7.068473 -6.150877 0.412687 2.972578 10.694758 0.323010 -3.218680 -6.670151 0.991000 6.335800 17.761900 11.992175 0.682273 3.749750 -0.589486 0.828093 0.355400 1.145180 -8.211890 -3.592945 -0.149500 2.491600 -6.866300 -19.542756 6.822124 3.242514 -3.758209 3.305925 1.271814 28.187013 -19.308691 26.964679 7.722200 -7.126400 12.052900 -102.471773 28.192980 5.887292 33.221497 -38.136427 -12.690883 1.501491 -0.261909 -57.181622 -7.125000 0.000000 0.000000 94.455725 -7.222028 13.985474 -17.671662 22.131244 -3.905689 0.055101 -0.816238 24.469033 7.125000 0.000000 0.000000 
10.042883 18.137116 9.937753 60.145180 -84.218468 -52.229005 -15.257631 -6.972501 -6.390629 0.416564 2.999128 10.750225 0.343433 -3.546504 -6.594661 1.058800 6.542400 18.366500 12.433427 0.625760 3.604377 -0.594355 0.840428 0.365075 1.152876 -8.228087 -3.549399 -0.154500 2.533000 -6.981200 -19.418784 6.779185 3.185783 -3.812773 3.292715 1.360226 28.150279 -19.349708 26.997990 7.693200 -7.141400 12.061500 -102.403244 28.621479 6.498530 33.640373 -38.497335 -12.972295 1.451109 -0.454734 -57.061823 -7.125000 0.000000 0.000000 94.601089 -7.199206 13.207721 -17.648181 22.098909 -3.891132 0.034824 -0.833805 25.037450 7.125000 0.000000 0.000000 
10.041153 18.141920 9.931987 61.655434 -84.378844 -53.711884 -15.209144 -6.871502 -6.396424 0.406611 2.985350 10.696700 0.350798 -3.423944 -6.848198 0.929800 6.142500 17.198500 12.523533 0.846333 3.605388 -0.598455 0.840430 0.369499 1.159678 -8.260950 -3.472045 -0.168300 2.643100 -7.286700 -19.475680 6.910373 3.212035 -3.782826 3.359116 1.392683 28.065727 -19.383690 26.999177 7.626200 -7.143600 12.066200 -102.172238 28.889245 7.133418 33.970943 -38.746660 -13.283561 1.433377 -0.205246 -57.286149 -7.125000 0.000000 0.000000 94.792723 -7.032468 12.270368 -17.538064 21.961472 -3.838095 0.011554 -0.870963 25.789962 7.125000 0.000000 0.000000 
10.039328 18.139038 9.931795 67.054435 -84.298623 -59.244569 -15.627290 -6.938345 -6.075625 0.399872 2.980861 10.685474 0.333165 -2.882545 -7.222571 0.793800 5.687000 15.878900 12.113396 1.185851 3.831192 -0.597198 0.825486 0.363310 1.159843 -8.291560 -3.464268 -0.190400 2.810200 -7.750800 -19.712792 7.194527 3.285657 -3.751431 3.494996 1.324504 28.047987 -19.416006 26.881250 7.587800 -7.158800 12.019900 -101.835349 29.209618 7.943805 34.234714 -38.943315 -13.505775 1.400361 -0.106763 -57.358559 -7.125000 0.000000 0.000000 94.846783 -7.087232 12.306308 -17.530471 21.973997 -3.840704 0.012126 -0.884108 25.592870 7.125000 0.000000 0.000000 
10.038655 18.135098 9.935735 69.074723 -84.139666 -61.399913 -15.898645 -7.358022 -5.676297 0.392945 2.974053 10.668563 0.306658 -2.367210 -7.452478 0.826000 5.798500 16.201000 11.800190 1.243017 3.987235 -0.592749 0.817157 0.356512 1.160596 -8.323590 -3.553558 -0.186300 2.779900 -7.666500 -19.696502 7.286275 3.411764 -3.636670 3.533351 1.289293 28.077496 -19.375210 26.737572 7.611000 -7.160600 11.949700 -101.801868 29.431394 8.452045 34.319460 -39.012011 -13.596194 1.376691 -0.105907 -57.209732 -7.125000 0.000000 0.000000 94.649985 -7.256051 12.916040 -17.601711 22.077822 -3.875939 0.032274 -0.857340 25.019668 7.125000 0.000000 0.000000 
10.039616 18.138557 9.933333 65.792872 -84.306216 -58.102528 -15.541191 -7.637353 -5.639075 0.381960 2.964290 10.618630 0.301033 -2.273735 -7.470169 0.873400 5.958400 16.663900 12.127843 1.059101 3.931669 -0.594432 0.829188 0.362583 1.150389 -8.235990 -3.605684 -0.126600 2.293500 -6.317400 -19.440151 7.212836 3.483386 -3.632454 3.496035 1.362268 28.133004 -19.404103 26.704600 7.648400 -7.186600 11.947300 -101.791358 29.526053 8.792754 34.246717 -38.939570 -13.558363 1.368190 -0.100426 -56.892429 -7.125000 0.000000 0.000000 94.511367 -7.323348 12.960387 -17.646304 22.130278 -3.892537 0.034592 -0.836161 25.048158 7.125000 0.000000 0.000000 
10.039039 18.141056 9.927663 63.780998 -84.565807 -56.058754 -15.208352 -7.469567 -5.820262 0.380812 2.990321 10.670305 0.308675 -2.312890 -7.525691 0.712500 5.394600 15.037700 12.499308 1.052213 3.889224 -0.599832 0.839819 0.371431 1.136736 -8.116733 -3.562603 -0.093700 1.974100 -5.434000 -19.261530 7.263766 3.507134 -3.656717 3.523432 1.418156 28.094802 -19.505670 26.765223 7.614500 -7.228100 11.979800 -101.536585 29.600395 9.291646 34.049875 -38.753692 -13.416606 1.356081 -0.097594 -56.278594 -7.125000 0.000000 0.000000 94.461867 -7.370424 12.833707 -17.671415 22.162347 -3.901590 0.033140 -0.829981 25.113996 7.125000 0.000000 0.000000 
10.032697 18.139038 9.928528 69.059223 -84.496817 -61.315869 -15.590720 -7.251882 -5.876670 0.396919 3.051413 10.862760 0.315399 -2.163257 -7.829281 0.616700 5.025900 13.982500 12.146854 1.427424 3.932851 -0.600735 0.826584 0.368647 1.139479 -8.162460 -3.563761 -0.132200 2.343900 -6.457000 -19.348466 7.552224 3.524540 -3.488468 3.663401 1.432183 28.083211 -19.627732 26.815561 7.595400 -7.278300 12.029700 -101.119574 29.642026 9.994590 33.743682 -38.469697 -13.190077 1.342764 -0.100798 -55.603799 -7.125000 0.000000 0.000000 94.351831 -7.425793 12.940000 -17.649411 22.140129 -3.889704 0.048490 -0.818446 24.844021 7.125000 0.000000 0.000000 
10.017898 18.139806 9.931219 72.914033 -84.575838 -64.928696 -15.672113 -6.931847 -6.041183 0.387779 3.002667 10.723886 0.320384 -2.272234 -7.761182 0.736700 5.483300 15.292500 12.067405 1.817789 3.767140 -0.605178 0.820283 0.374182 1.147564 -8.235142 -3.637911 -0.166900 2.631600 -7.254700 -19.359757 7.792335 3.420662 -3.399938 3.785387 1.641326 28.175781 -19.691416 26.814637 7.638200 -7.307700 12.061300 -100.701988 29.580557 10.548576 33.280400 -38.033524 -12.829314 1.350096 -0.119384 -54.614498 -7.125000 0.000000 0.000000 94.223110 -7.509331 12.947309 -17.597581 22.060620 -3.861885 0.053119 -0.819442 24.857557 7.125000 0.000000 0.000000 
9.997622 18.143458 9.927087 69.460718 -85.221396 -60.849535 -14.945836 -5.730886 -7.202176 0.382314 2.949093 10.558575 0.337582 -3.123963 -6.932832 0.667300 5.224100 14.548800 12.950191 1.992777 3.139320 -0.620922 0.843210 0.402151 1.143568 -8.159042 -3.640083 -0.137400 2.388700 -6.581100 -18.972548 7.761828 3.117987 -3.441904 3.789033 2.153839 28.149558 -19.650424 26.998169 7.659200 -7.282000 12.120100 -100.493764 29.399371 10.603086 32.675004 -37.453244 -12.354226 1.379657 -0.150120 -52.809516 -7.125000 0.000000 0.000000 93.982946 -7.646508 13.093157 -17.593219 22.012183 -3.853628 0.044557 -0.834100 24.937892 7.125000 0.000000 0.000000 
10.023087 18.129428 9.922858 68.671653 -84.884216 -60.444643 -15.596814 -4.354454 -7.603232 0.392774 2.904874 10.502263 0.313351 -3.209759 -6.465130 0.064900 1.644100 4.523200 12.571016 1.686527 3.473182 -0.612377 0.836775 0.387450 1.112499 -7.979795 -3.687399 -0.081500 1.841900 -5.069100 -18.997162 7.684896 3.343661 -3.372692 3.736622 1.736212 27.975232 -19.712840 27.323600 7.601000 -7.285500 12.271100 -100.113799 29.128005 10.721886 32.096195 -36.937822 -11.917615 1.392931 -0.181551 -50.438671 -7.125000 0.000000 0.000000 93.883889 -7.642253 13.015674 -17.564458 21.996451 -3.842916 0.017531 -0.795290 25.019994 7.125000 0.000000 0.000000 
10.045958 18.141824 9.919687 61.504223 -84.287969 -53.855189 -15.417355 -6.798236 -6.026293 0.383438 2.923165 10.515889 0.313326 -2.779848 -7.028786 0.586800 4.904700 13.636900 12.297161 0.699115 3.913155 -0.594648 0.839888 0.364586 1.086428 -7.814267 -3.724331 -0.039600 1.283700 -3.529800 -19.147381 7.498128 3.859177 -3.429227 3.608285 1.329357 27.751069 -19.957617 27.436461 7.412700 -7.349200 12.385500 -99.372981 28.782214 11.167660 31.582646 -36.482575 -11.526642 1.366426 -0.257099 -47.686609 -7.125000 0.000000 0.000000 94.085826 -7.427665 12.443920 -17.525586 21.985224 -3.828290 -0.006288 -0.764463 25.257931 7.125000 0.000000 0.000000 
